<?xml version="1.0" standalone="no"?><!DOCTYPE svg PUBLIC "-//W3C//DTD SVG 1.1//EN" "http://www.w3.org/Graphics/SVG/1.1/DTD/svg11.dtd"><svg t="1554880791940" class="icon" style="" viewBox="0 0 1024 1024" version="1.1" xmlns="http://www.w3.org/2000/svg" p-id="1854" xmlns:xlink="http://www.w3.org/1999/xlink" width="24" height="24"><defs><style type="text/css"></style></defs><path d="M64.191998 64.376193 64.191998 959.741487l895.14733 0L959.339328 64.376193 64.191998 64.376193zM896.205429 896.28934 128.643915 896.28934 128.643915 128.633682l767.561513 0L896.205429 896.28934zM648.870274 329.577251 330.544275 647.904273c-11.822257 11.822257-11.187807 31.624255 1.410116 44.222177 12.602016 12.602016 32.402991 13.237489 44.226271 1.414209l318.327022-318.327022c11.82021-11.82021 11.181667-31.618115-1.420349-44.220131C680.488389 318.395584 660.690484 317.757041 648.870274 329.577251L648.870274 329.577251zM694.50666 647.907343 376.179638 329.580321c-11.822257-11.822257-31.624255-11.187807-44.222177 1.410116-12.602016 12.602016-13.237489 32.402991-1.414209 44.226271l318.327022 318.327022c11.82021 11.82021 31.618115 11.181667 44.220131-1.420349C705.688327 679.525458 706.32687 659.727553 694.50666 647.907343L694.50666 647.907343z" p-id="1855"></path></svg>