<?xml version="1.0" standalone="no"?><!DOCTYPE svg PUBLIC "-//W3C//DTD SVG 1.1//EN" "http://www.w3.org/Graphics/SVG/1.1/DTD/svg11.dtd"><svg t="1554693834432" class="icon" style="" viewBox="0 0 1024 1024" version="1.1" xmlns="http://www.w3.org/2000/svg" p-id="2584" xmlns:xlink="http://www.w3.org/1999/xlink" width="32" height="32"><defs><style type="text/css"></style></defs><path d="M834.909427 936.394728 189.089629 936.394728c-50.782593 0-92.097558-41.314964-92.097558-92.097558L96.992071 177.78305c0-50.782593 41.314964-92.097558 92.097558-92.097558l645.819798 0c50.782593 0 92.097558 41.314964 92.097558 92.097558l0 666.513096C927.006985 895.079763 885.692021 936.394728 834.909427 936.394728zM189.089629 147.083864c-16.927531 0-30.699186 13.771655-30.699186 30.699186l0 666.513096c0 16.927531 13.771655 30.699186 30.699186 30.699186l645.819798 0c16.927531 0 30.699186-13.771655 30.699186-30.699186L865.608613 177.78305c0-16.927531-13.771655-30.699186-30.699186-30.699186L189.089629 147.083864z" p-id="2585"></path><path d="M763.846952 460.557345 260.152105 460.557345 260.152105 138.215893 290.851291 138.215893 290.851291 429.858159 733.147766 429.858159 733.147766 138.215893 763.846952 138.215893Z" p-id="2586"></path><path d="M675.160073 383.809381l-89.822748 0 0-153.49593 89.822748 0L675.160073 383.809381zM616.036511 353.110195l28.424376 0 0-92.097558-28.424376 0L616.036511 353.110195z" p-id="2587"></path></svg>