<?xml version="1.0" standalone="no"?><!DOCTYPE svg PUBLIC "-//W3C//DTD SVG 1.1//EN" "http://www.w3.org/Graphics/SVG/1.1/DTD/svg11.dtd"><svg t="1554881745080" class="icon" style="" viewBox="0 0 1091 1024" version="1.1" xmlns="http://www.w3.org/2000/svg" p-id="7621" xmlns:xlink="http://www.w3.org/1999/xlink" width="25.5703125" height="24"><defs><style type="text/css"></style></defs><path d="M860.314732 1023.863207C854.330028 1023.863207 848.311125 1022.290084 842.94199 1019.075443L544.766923 841.483618 246.455063 1019.075443C234.656646 1026.120295 219.951372 1025.333734 208.905318 1017.228735 197.893462 1009.089537 192.763716 995.136626 195.978357 981.799285L275.284238 648.810338 12.025646 425.153389C1.526765 416.22763-2.577032 401.830141 1.62936 388.663792 5.835752 375.565839 17.531574 366.2297 31.245096 365.101156L378.46054 336.374576 513.475469 20.689974C518.844604 8.139194 531.121797-4.0e-06 544.766923-4.0e-06L544.766923-4.0e-06C558.412049-4.0e-06 570.689242 8.173392 576.058377 20.724172L710.970711 336.374576 1058.220354 365.101156C1071.933876 366.2297 1083.663896 375.565839 1087.83609 388.69799 1092.076681 401.830141 1087.938685 416.22763 1077.439804 425.153389L814.112815 648.810338 893.452895 981.799285C896.633338 995.136626 891.503591 1009.089537 880.491735 1017.228735 874.507031 1021.640317 867.427981 1023.863207 860.314732 1023.863207ZM118.758572 426.35033 335.268075 610.337239C345.08299 618.61323 349.357778 631.745381 346.382525 644.296161L280.892761 919.216377 527.394182 772.471428C538.098253 766.076344 551.435594 766.076344 562.139665 772.471428L808.53849 919.182179 743.014528 644.296161C740.039275 631.745381 744.314064 618.61323 754.128979 610.337239L970.706878 426.35033 684.945797 402.719297C672.360819 401.693348 661.41736 393.793539 656.458605 382.131915L544.766923 120.788428 432.938449 382.166113C428.013892 393.793539 417.036234 401.693348 404.451256 402.719297L118.758572 426.35033Z" p-id="7622"></path></svg>