<?xml version="1.0" standalone="no"?><!DOCTYPE svg PUBLIC "-//W3C//DTD SVG 1.1//EN" "http://www.w3.org/Graphics/SVG/1.1/DTD/svg11.dtd"><svg t="1563264528866" class="icon" viewBox="0 0 1024 1024" version="1.1" xmlns="http://www.w3.org/2000/svg" p-id="1981" xmlns:xlink="http://www.w3.org/1999/xlink" width="24" height="24"><defs><style type="text/css"></style></defs><path d="M1007.2 542.048L862.048 687.2c-6.24 6.24-16.384 6.24-22.624 0l-22.656-22.656c-6.24-6.24-6.24-16.384 0-22.624L914.752 544H544v370.752l97.952-97.952c6.24-6.24 16.384-6.24 22.624 0l22.656 22.656c6.24 6.24 6.24 16.384 0 22.624L542.08 1007.232c-0.32-0.736-17.664 16.768-30.08 16.768s-28.736-17.504-30.048-16.8L336.8 862.048c-6.24-6.24-6.24-16.384 0-22.624l22.656-22.656c6.24-6.24 16.384-6.24 22.624 0L480 914.752V544H109.248l97.952 97.952c6.24 6.24 6.24 16.384 0 22.624l-22.656 22.656c-6.24 6.24-16.384 6.24-22.624 0L16.768 542.08C17.504 541.76 0 524.416 0 512s17.504-28.736 16.8-30.048L161.952 336.8c6.24-6.24 16.384-6.24 22.624 0l22.656 22.656c6.24 6.24 6.24 16.384 0 22.624L109.248 480H480V109.248L382.048 207.2c-6.24 6.24-16.384 6.24-22.624 0l-22.656-22.656c-6.24-6.24-6.24-16.384 0-22.624L481.92 16.768C482.24 17.504 499.584 0 512 0s28.736 17.504 30.048 16.8L687.2 161.952c6.24 6.24 6.24 16.384 0 22.624l-22.656 22.656c-6.24 6.24-16.384 6.24-22.624 0L544 109.248V480h370.752L816.8 382.048c-6.24-6.24-6.24-16.384 0-22.624l22.656-22.656c6.24-6.24 16.384-6.24 22.624 0l145.152 145.152c-0.736 0.32 16.768 17.664 16.768 30.08s-17.504 28.736-16.8 30.048z" p-id="1982"></path></svg>